<svg width="778" height="88" viewBox="0 0 778 88" fill="none" xmlns="http://www.w3.org/2000/svg">
<path d="M2.69759 2.90966V72.0297H18.8256C23.0496 72.0297 27.6576 70.3977 30.6336 67.5177C33.7056 64.4457 35.4336 60.1257 35.4336 55.4217V47.8377C35.4336 43.5177 33.2256 39.4857 30.4416 36.4137C32.7456 33.5337 34.6656 29.8857 34.6656 26.0457V19.5177C34.6656 14.9097 32.9376 10.5897 29.8656 7.51766C26.8896 4.54166 22.2816 2.90966 18.0576 2.90966H2.69759ZM18.0576 14.3337C19.7856 14.3337 20.9376 15.2937 20.9376 17.2137V29.1177C20.9376 30.8457 20.0736 31.9977 18.2496 31.9977H16.4256V14.3337H18.0576ZM21.7056 57.7257C21.7056 59.7417 21.0336 60.7017 18.8256 60.7017H16.4256V41.7897C16.4256 41.7897 18.6336 41.7897 18.9216 41.7897C20.3616 41.7897 21.7056 42.8457 21.7056 44.7657V57.7257ZM72.1813 71.4537C71.8933 70.7817 71.6053 69.7257 71.6053 68.7657V68.3817V50.8137C71.6053 46.5897 70.3573 42.3657 66.8053 39.5817C69.3973 36.6057 71.6053 32.5737 71.6053 28.3497V19.5177C71.6053 14.8137 69.8773 10.5897 66.8053 7.51766C63.8293 4.54166 59.7973 2.90966 55.5733 2.90966H39.5413V47.9337V72.0297H53.1733V44.8617H55.5733C57.3013 44.8617 57.9733 45.8217 57.9733 47.7417V68.5737C57.9733 70.4937 58.4533 72.0297 59.1253 72.0297H69.9733H71.9893C72.1813 71.9337 72.2773 71.8377 72.2773 71.6457L72.1813 71.4537ZM57.9733 30.6537C57.9733 32.5737 57.3973 33.5337 55.5733 33.5337H53.1733V14.2377H55.5733C57.3973 14.2377 57.9733 15.2937 57.9733 17.2137V30.6537ZM77.0593 72.0297H90.6913V2.90966H77.0593V72.0297ZM122.555 3.00566L118.331 55.1337L114.203 3.00566H96.6351V72.0297H108.539V32.5737L113.243 72.0297H123.515L128.219 32.6697V72.0297H140.027V3.00566H122.555ZM176.11 50.2377C176.11 44.9577 175.534 42.3657 172.462 39.2937L162.286 30.5577C159.982 28.2537 158.158 27.6777 158.158 24.4137V16.3497C158.158 14.6217 159.406 14.2377 160.27 14.2377C160.942 14.2377 162.286 14.6217 162.286 16.4457V27.1017H175.726V17.1177C175.726 12.7017 174.19 9.05366 170.83 5.78966C168.142 3.19766 164.974 2.04566 160.078 2.04566C155.086 2.04566 151.918 3.19766 149.23 5.78966C145.87 9.05366 144.334 12.7017 144.334 17.1177C144.334 17.1177 144.334 25.5657 144.334 25.7577C144.334 29.9817 145.582 32.4777 148.174 35.0697L158.158 44.0937C161.422 47.2617 162.286 47.5497 162.286 50.5257V58.9737C162.286 60.8937 160.462 61.0857 159.982 61.0857C159.406 61.0857 157.582 60.8937 157.582 58.9737V47.2617H144.334V58.3017C144.334 62.7177 145.87 66.2697 149.23 69.5337C151.918 72.2217 155.086 73.3737 159.982 73.3737C165.07 73.3737 168.622 72.1257 171.214 69.5337C174.574 66.2697 176.11 62.7177 176.11 58.3017V50.2377ZM188.032 72.0297H201.856V14.4297H210.976V2.90966H178.912V14.4297H188.032V72.0297ZM241.258 5.78966C238.282 2.90966 234.154 2.04566 229.93 2.04566C225.706 2.04566 221.578 2.90966 218.602 5.78966C215.53 8.86166 213.802 12.4137 213.802 17.0217V58.3977C213.802 63.1017 215.53 66.5577 218.602 69.6297C221.578 72.6057 225.706 73.3737 229.93 73.3737C234.154 73.3737 238.282 72.6057 241.258 69.6297C244.426 66.5577 246.154 63.1017 246.154 58.3977V17.0217C246.154 12.4137 244.426 8.86166 241.258 5.78966ZM232.522 59.1657C232.522 61.0857 230.698 61.3737 229.93 61.3737C229.258 61.3737 227.434 61.0857 227.434 59.1657V16.2537C227.434 14.3337 229.258 14.1417 229.93 14.1417C230.698 14.1417 232.522 14.3337 232.522 16.2537V59.1657ZM283.311 72.0297V2.90966H271.311V41.7897L263.247 2.90966H250.479V72.0297H262.479V34.5897L270.927 72.0297H283.311ZM288.541 72.0297H315.325V60.0297H302.653V43.0377H312.061V33.0537H302.653V14.4297H315.325V2.90966H288.541V72.0297Z" fill="#FF4655"/>
<path d="M303.088 2.88V72H319.216C323.44 72 328.048 70.368 331.024 67.488C334.096 64.416 335.824 60.096 335.824 55.392V47.808C335.824 43.488 333.616 39.456 330.832 36.384C333.136 33.504 335.056 29.856 335.056 26.016V19.488C335.056 14.88 333.328 10.56 330.256 7.488C327.28 4.512 322.672 2.88 318.448 2.88H303.088ZM318.448 14.304C320.176 14.304 321.328 15.264 321.328 17.184V29.088C321.328 30.816 320.464 31.968 318.64 31.968H316.816V14.304H318.448ZM322.096 57.696C322.096 59.712 321.424 60.672 319.216 60.672H316.816V41.76C316.816 41.76 319.024 41.76 319.312 41.76C320.752 41.76 322.096 42.816 322.096 44.736V57.696ZM372.572 71.424C372.284 70.752 371.996 69.696 371.996 68.736V68.352V50.784C371.996 46.56 370.748 42.336 367.196 39.552C369.788 36.576 371.996 32.544 371.996 28.32V19.488C371.996 14.784 370.268 10.56 367.196 7.488C364.22 4.512 360.188 2.88 355.964 2.88H339.932V47.904V72H353.564V44.832H355.964C357.692 44.832 358.364 45.792 358.364 47.712V68.544C358.364 70.464 358.844 72 359.516 72H370.364H372.38C372.572 71.904 372.668 71.808 372.668 71.616L372.572 71.424ZM358.364 30.624C358.364 32.544 357.788 33.504 355.964 33.504H353.564V14.208H355.964C357.788 14.208 358.364 15.264 358.364 17.184V30.624ZM377.45 72H391.082V2.88H377.45V72ZM422.945 2.976L418.721 55.104L414.593 2.976H397.025V72H408.929V32.544L413.633 72H423.905L428.609 32.64V72H440.417V2.976H422.945ZM476.5 50.208C476.5 44.928 475.924 42.336 472.852 39.264L462.676 30.528C460.372 28.224 458.548 27.648 458.548 24.384V16.32C458.548 14.592 459.796 14.208 460.66 14.208C461.332 14.208 462.676 14.592 462.676 16.416V27.072H476.116V17.088C476.116 12.672 474.58 9.024 471.22 5.75999C468.532 3.168 465.364 2.016 460.468 2.016C455.476 2.016 452.308 3.168 449.62 5.75999C446.26 9.024 444.724 12.672 444.724 17.088C444.724 17.088 444.724 25.536 444.724 25.728C444.724 29.952 445.972 32.448 448.564 35.04L458.548 44.064C461.812 47.232 462.676 47.52 462.676 50.496V58.944C462.676 60.864 460.852 61.056 460.372 61.056C459.796 61.056 457.972 60.864 457.972 58.944V47.232H444.724V58.272C444.724 62.688 446.26 66.24 449.62 69.504C452.308 72.192 455.476 73.344 460.372 73.344C465.46 73.344 469.012 72.096 471.604 69.504C474.964 66.24 476.5 62.688 476.5 58.272V50.208ZM488.422 72H502.246V14.4H511.366V2.88H479.302V14.4H488.422V72ZM541.649 5.75999C538.673 2.88 534.545 2.016 530.321 2.016C526.097 2.016 521.969 2.88 518.993 5.75999C515.921 8.832 514.193 12.384 514.193 16.992V58.368C514.193 63.072 515.921 66.528 518.993 69.6C521.969 72.576 526.097 73.344 530.321 73.344C534.545 73.344 538.673 72.576 541.649 69.6C544.817 66.528 546.545 63.072 546.545 58.368V16.992C546.545 12.384 544.817 8.832 541.649 5.75999ZM532.913 59.136C532.913 61.056 531.089 61.344 530.321 61.344C529.649 61.344 527.825 61.056 527.825 59.136V16.224C527.825 14.304 529.649 14.112 530.321 14.112C531.089 14.112 532.913 14.304 532.913 16.224V59.136ZM583.701 72V2.88H571.701V41.76L563.637 2.88H550.869V72H562.869V34.56L571.317 72H583.701ZM588.932 72H615.716V60H603.044V43.008H612.452V33.024H603.044V14.4H615.716V2.88H588.932V72Z" fill="#FF4655"/>
</svg>
