<svg width="70" height="45" viewBox="0 0 70 45" fill="none" xmlns="http://www.w3.org/2000/svg">
<path d="M18.1018 0.812848L40.2493 28.5162C40.3726 28.6702 40.2627 28.898 40.0655 28.898H29.2365C29.1658 28.898 29.099 28.8666 29.055 28.8116L17.4813 14.6677C17.4459 14.6245 17.4271 14.5703 17.4279 14.5145L17.6832 0.955025C17.6879 0.735082 17.9644 0.640821 18.1018 0.812848Z" fill="white"/>
<path d="M37.1065 19.3925H48.2199C48.3149 19.3925 48.4053 19.3509 48.4658 19.2786C48.4658 19.2786 52.5732 14.2851 52.5732 14.2781C52.5206 9.66948 52.4679 5.06089 52.4161 0.453083C52.413 0.15616 52.0336 0.0281216 51.8458 0.260633C46.8492 6.46774 41.8533 12.6748 36.8567 18.8812C36.6902 19.0878 36.8394 19.3925 37.1065 19.3925Z" fill="white"/>
<path d="M0.570796 34.4068H1.67287C1.84647 34.4068 1.98707 34.5474 1.98707 34.721V40.1064C1.98707 40.4026 2.3594 40.5346 2.54557 40.3044L7.22329 34.523C7.28299 34.45 7.37175 34.4068 7.46601 34.4068L9.60653 34.3966L2.08133 43.7834C2.02163 43.858 1.9313 43.9013 1.83625 43.9013H0.570796C0.397198 43.9013 0.256592 43.7606 0.256592 43.587V34.721C0.256592 34.5474 0.397198 34.4068 0.570796 34.4068Z" fill="white"/>
<path d="M13.9606 34.3958H12.6087C12.5231 34.3958 12.443 34.4351 12.3896 34.5018L5.03485 43.7355C4.98222 43.8015 5.02935 43.9005 5.11497 43.9005H6.90437C6.98842 43.9005 7.06775 43.8628 7.12117 43.7983L9.59395 40.7906C9.70707 40.6524 9.91916 40.6539 10.0299 40.7938L12.4234 43.7952C12.476 43.8612 12.5569 43.9005 12.6425 43.9005H13.9606C14.1154 43.9005 14.241 43.7748 14.241 43.62V34.6762C14.241 34.5215 14.1154 34.3958 13.9606 34.3958ZM12.4344 41.1512L10.8296 39.1481L12.5129 37.0665C12.487 38.4278 12.4603 39.7899 12.4344 41.1512Z" fill="white"/>
<path d="M16.7531 34.3958H17.9015C18.0743 34.3958 18.2134 34.5356 18.2134 34.7076V42.1386H22.1441C22.2234 42.1386 22.2697 42.2273 22.225 42.2925L21.2022 43.7661C21.1441 43.8502 21.0483 43.9005 20.9462 43.9005H16.7539C16.5811 43.9005 16.442 43.7606 16.442 43.5886V34.7076C16.4405 34.5356 16.5803 34.3958 16.7531 34.3958Z" fill="white"/>
<path d="M27.3591 33.9245C24.5642 33.9245 22.298 36.2457 22.298 39.1089C22.298 41.972 24.5642 44.2932 27.3591 44.2932C30.1539 44.2932 32.4201 41.972 32.4201 39.1089C32.4201 36.2457 30.1539 33.9245 27.3591 33.9245ZM27.3591 42.408C25.5807 42.408 24.1385 40.9312 24.1385 39.1089C24.1385 37.2865 25.5807 35.8097 27.3591 35.8097C29.1375 35.8097 30.5797 37.2865 30.5797 39.1089C30.5797 40.9312 29.1375 42.408 27.3591 42.408Z" fill="white"/>
<path d="M33.9574 43.7434V34.6118C33.9574 34.4681 34.0744 34.351 34.2182 34.351H41.4221C41.5509 34.351 41.6546 34.4555 41.6546 34.5835V36.6738L39.298 39.6587L42.6757 43.9005H40.4315L37.0201 39.6587C37.9493 38.4671 38.8794 37.2763 39.8086 36.0846H35.8025C35.7892 38.6902 35.7766 41.2949 35.7632 43.9005H33.9566V43.7434H33.9574Z" fill="white"/>
<path d="M44.0119 34.6762V43.62C44.0119 43.7748 44.1376 43.9005 44.2923 43.9005H45.6104C45.696 43.9005 45.7769 43.8612 45.8296 43.7952L48.223 40.7938C48.3338 40.6539 48.5459 40.6524 48.659 40.7906L51.1318 43.7983C51.1852 43.8628 51.2645 43.9005 51.3486 43.9005H53.138C53.2236 43.9005 53.2707 43.8015 53.2181 43.7355L45.8633 34.5018C45.8099 34.4351 45.7298 34.3958 45.6442 34.3958H44.2923C44.1376 34.3958 44.0119 34.5215 44.0119 34.6762ZM45.74 37.0665L47.4234 39.1481L45.8186 41.1512C45.7926 39.7899 45.7659 38.4278 45.74 37.0665Z" fill="white"/>
<path d="M51.988 39.1827L53.4867 41.0726C53.5488 41.1504 53.6737 41.1064 53.6737 41.0074V37.2346L58.9248 43.7104C58.9822 43.7811 59.0678 43.8219 59.1589 43.8219H60.6199C60.7378 43.8219 60.8328 43.7261 60.8328 43.609V34.5639C60.8328 34.4712 60.7574 34.3958 60.6647 34.3958H59.2979C59.1848 34.3958 59.0929 34.4869 59.0921 34.6C59.0796 36.7445 59.067 38.8889 59.0544 41.0334C57.3114 38.8567 55.5691 36.6793 53.8261 34.5026C53.7719 34.4351 53.6902 34.3958 53.6038 34.3958H52.1349C52.0115 34.3958 51.9102 34.4955 51.9094 34.6189L51.8686 38.8355C51.8678 38.9612 51.9102 39.0845 51.988 39.1827Z" fill="white"/>
<path d="M64.8531 43.8219H66.3746C66.4312 43.8219 66.4775 43.7764 66.4783 43.719L66.5545 36.1475C66.5553 36.0909 66.6016 36.0446 66.6582 36.0446H69.6392C69.7264 36.0446 69.7751 35.9432 69.7201 35.8757L68.5505 34.4335C68.5308 34.4091 68.501 34.395 68.4696 34.395H62.1588C62.1014 34.395 62.0551 34.4413 62.0551 34.4987V35.9747C62.0551 36.032 62.1014 36.0784 62.1588 36.0784H64.6449C64.7022 36.0784 64.7486 36.1247 64.7486 36.182V43.7174C64.7494 43.7756 64.7957 43.8219 64.8531 43.8219Z" fill="white"/>
</svg>
