<svg width="382" height="631" viewBox="0 0 382 631" fill="none" xmlns="http://www.w3.org/2000/svg">
<path d="M83.818 76.0241L175.288 103.487L199.931 195.757L108.461 168.294L83.818 76.0241Z" stroke="#909090" stroke-opacity="0.5" stroke-width="5"/>
<path d="M207.073 203.122L298.543 230.585L323.187 322.854L231.717 295.391L207.073 203.122Z" stroke="#909090" stroke-opacity="0.5" stroke-width="5"/>
<path d="M136.136 271.915L227.606 299.378L252.249 391.647L160.779 364.184L136.136 271.915Z" stroke="#909090" stroke-opacity="0.5" stroke-width="5"/>
<path d="M262.778 404.314L354.248 431.777L378.891 524.047L287.421 496.584L262.778 404.314Z" stroke="#909090" stroke-opacity="0.5" stroke-width="5"/>
<path d="M191.841 473.107L283.311 500.57L307.954 592.84L216.484 565.377L191.841 473.107Z" stroke="#909090" stroke-opacity="0.5" stroke-width="5"/>
<path d="M64.6715 340.707L156.141 368.171L180.785 460.44L89.3148 432.977L64.6715 340.707Z" stroke="#909090" stroke-opacity="0.5" stroke-width="5"/>
<path d="M281.452 370.68L307.611 468.626L210.515 439.473L184.356 341.528L281.452 370.68Z" fill="#909090" fill-opacity="0.5"/>
<path d="M187.927 345.21L279.397 372.673L304.04 464.943L212.57 437.48L187.927 345.21Z" stroke="#909090" stroke-opacity="0.5" stroke-width="5"/>
<path d="M266.471 251.582L292.63 349.528L195.534 320.375L169.375 222.43L266.471 251.582Z" fill="#909090" fill-opacity="0.5"/>
<path d="M172.946 226.113L264.416 253.576L289.059 345.845L197.589 318.382L172.946 226.113Z" stroke="#909090" stroke-opacity="0.5" stroke-width="5"/>
<path d="M132.565 233.893L158.724 331.839L61.6277 302.686L35.4686 204.741L132.565 233.893Z" fill="#909090" fill-opacity="0.5"/>
<path d="M39.0397 208.423L130.51 235.887L155.153 328.156L63.683 300.693L39.0397 208.423Z" stroke="#909090" stroke-opacity="0.5" stroke-width="5"/>
<path d="M285.366 63.5488L311.525 161.494L214.429 132.342L188.27 34.3964L285.366 63.5488Z" fill="#909090" fill-opacity="0.5"/>
<path d="M191.841 38.0789L283.311 65.542L307.954 157.812L216.484 130.349L191.841 38.0789Z" stroke="#909090" stroke-opacity="0.5" stroke-width="5"/>
</svg>
